<svg id="Layer_1" height="512" viewBox="0 0 90 90" width="512" xmlns="http://www.w3.org/2000/svg"><g clip-rule="evenodd" fill-rule="evenodd"><path d="m68.463 54.154c8.667-1.255 15.104-8.688 15.109-17.459.006-9.754-7.891-17.66-17.63-17.66-2.281.005-4.536.453-6.64 1.317-1.969-3.677-5.35-6.589-9.641-7.87-7.479-2.235-15.354 1.188-18.922 7.874-2.104-.874-4.36-1.316-6.642-1.321-9.733 0-17.628 7.906-17.628 17.66.014 8.767 6.453 16.199 15.12 17.454v20.406c2.719 2.357 14.145 3.656 23.438 3.656 9.285 0 20.712-1.299 23.437-3.656v-20.401z" fill="#f2f2f2"/><path d="m58.365 38.826c2.354-5.864 3.104-8.442 2.724-13.953 10.312-2.766 14.249 4.922 12.989 10.256-1.234 5.232-7.146 9.359-15.713 3.697zm-12.922-27.021c-3.667-.098-7.214 1.068-10.088 3.209 8.926-2.396 15.962 6.266 10.546 15.506-4.224 7.203-20.385 8.406-17.672-3.568-3.052 1.609-4.62 6.011-4.317 10.296.307 4.387 3.041 5.609 5.905 5.038 11.505-2.292 30.548-6.09 30.548 10.594v21.682h8.098v-20.408c8.667-1.255 15.104-8.688 15.109-17.459.006-9.754-7.891-17.66-17.63-17.66-1.833.005-3.646.307-5.38.869-.421.136-.849.281-1.26.448-1.969-3.677-5.35-6.589-9.641-7.87-1.401-.421-2.817-.64-4.218-.677z" fill="#ccc"/><path d="m45.021 70.904c-9.287 0-20.713 1.297-23.438 3.651 2.724 2.357 14.15 3.656 23.438 3.656 9.291 0 20.718-1.299 23.437-3.656-2.719-2.354-14.146-3.651-23.437-3.651z" fill="#a8a8a8"/><g fill="#284268"><path d="m45.021 72.04c4.593 0 9.738.316 14.025.927 2.146.308 4.089.651 5.604 1.118 1.438.443.954.679 0 .943-1.525.428-3.457.813-5.604 1.115-4.287.608-9.432.937-14.025.937-4.59 0-9.73-.328-14.016-.937-2.146-.302-4.079-.682-5.604-1.115-1.098-.339-.828-.582 0-.943 1.525-.431 3.459-.811 5.604-1.118 4.287-.611 9.427-.927 14.016-.927zm-.026-59.109c1.437 0 2.896.203 4.339.636 3.854 1.15 6.917 3.708 8.776 6.957l.349.678c1.577 3.109 2.109 6.766 1.224 10.406-.374 1.49 1.87 2.03 2.208.53.938-3.863.49-7.754-1.021-11.145 1.636-.536 3.35-.823 5.073-.828 9.125 0 16.5 7.391 16.5 16.53-.011 7.771-5.396 14.396-12.85 16.084v-5.161c.011-.636-.509-1.156-1.145-1.151-.631.011-1.136.526-1.125 1.151v24.984c-.615-.261-1.296-.49-2.058-.703-1.675-.475-3.686-.859-5.899-1.172-4.428-.631-9.646-.953-14.344-.953-4.699 0-9.912.322-14.339.953-2.213.313-4.229.697-5.901 1.172-.766.213-1.443.447-2.063.703v-24.989c.01-.643-.511-1.162-1.146-1.151-.63.009-1.13.526-1.12 1.151v5.161c-7.453-1.682-12.838-8.307-12.849-16.079 0-9.14 7.374-16.53 16.5-16.53 1.718.005 3.428.292 5.058.828-.178.396-.339.808-.49 1.224-.536 1.443 1.65 2.225 2.14.761 2.193-6.162 7.964-10.042 14.183-10.047zm.005-2.266c-.552 0-1.094.03-1.64.082-5.354.522-10.262 3.532-13.125 8.215-1.975-.688-4.041-1.058-6.13-1.063-10.353 0-18.765 8.433-18.765 18.796.01 8.97 6.426 16.494 15.114 18.251v19.609c-.021.5.333.863.76 1.119.964.572 2.095 1.12 3.568 1.542 1.672.473 3.688.859 5.901 1.172 4.427.63 9.64.958 14.339.958 4.697 0 9.916-.328 14.344-.958 2.213-.313 4.224-.699 5.899-1.172 1.538-.438 2.719-.989 3.688-1.625.484-.317.64-.614.64-1.036v-19.604c8.693-1.756 15.105-9.286 15.115-18.256 0-10.363-8.411-18.796-18.765-18.796-2.099.005-4.171.38-6.146 1.071-2.161-3.529-5.568-6.306-9.813-7.571-1.656-.5-3.334-.734-4.984-.734z"/><path d="m45.021 39.071c-4.631 0-9.376.583-13.579 1.589-.615.145-.99.754-.845 1.363.142.61.757.99 1.366.845 4.024-.964 8.62-1.531 13.057-1.531 4.443 0 9.036.567 13.063 1.531.609.146 1.219-.234 1.364-.845.146-.609-.234-1.219-.844-1.363-4.207-1.006-8.953-1.589-13.582-1.589z"/></g></g></svg>